<?xml version="1.0" encoding="UTF-8"?>
<svg width="521px" height="94px" viewBox="0 0 521 94" version="1.1" xmlns="http://www.w3.org/2000/svg" xmlns:xlink="http://www.w3.org/1999/xlink">
    <title>SAGE texti</title>
    <g id="SAGE-texti" stroke="none" stroke-width="1" fill="none" fill-rule="evenodd">
        <path d="M246.095,75.968 L246.095,54.721 L280.88,54.721 L280.88,47.113 L246.095,47.113 L246.095,27.641 L283.796,27.641 L283.796,20.031 L237.507,20.031 L237.507,83.575 L284.418,83.575 L284.418,75.968 L246.095,75.968 Z M224.143,83.575 L231.492,83.575 L231.492,49.59 L203.612,49.59 L203.612,56.936 L223.437,56.936 C223.437,63.752 222.021,69.415 216.448,73.841 C211.754,77.557 206.621,77.912 203.433,77.912 C186.53,77.912 182.287,64.632 182.287,51.709 C182.287,35.075 191.666,25.957 203.079,25.957 C210.076,25.957 219.372,28.259 222.111,39.324 L230.428,39.324 C228.578,25.073 215.385,18.342 203.528,18.342 C182.81,18.342 173.434,35.782 173.434,51.27 C173.434,58.001 173.699,68.88 183.433,78.087 C186.709,81.276 192.014,85.256 202.906,85.256 C211.58,85.256 219.546,81.362 223.883,75.344 L224.143,83.575 Z M176.881,83.578 L153.868,20.028 L144.141,20.028 L120.238,83.578 L129.094,83.578 L135.731,65.075 L161.222,65.075 L167.502,83.578 L176.881,83.578 Z M158.12,57.466 L138.383,57.466 L148.56,29.498 L148.74,29.498 L158.12,57.466 Z M81.385,36.845 C81.385,27.197 90.498,25.694 95.898,25.694 C103.071,25.694 111.213,28.786 111.651,38.614 L119.707,38.614 C119.36,31.62 117.142,18.345 94.928,18.345 C79.525,18.345 73.067,28.084 73.067,37.993 C73.067,49.058 82.448,51.98 86.604,52.951 L99.621,55.963 C110.061,58.442 113.163,60.563 113.163,67.202 C113.163,76.318 102.717,77.915 96.523,77.915 C88.381,77.915 78.993,74.548 78.993,63.04 L70.944,63.04 C70.944,68.969 72.008,74.282 77.397,79.152 C80.23,81.719 84.835,85.253 96.605,85.253 C107.495,85.253 121.479,81.096 121.479,66.051 C121.479,55.963 115.283,51.004 107.054,49.058 L88.905,44.898 C85.192,44.013 81.385,42.244 81.385,36.845 Z M66.269,51.735 C66.269,28.856 51.331,10.112 33.509,10.112 C15.303,10.112 0.75,28.856 0.75,51.735 C0.75,74.773 15.303,93.497 33.509,93.497 C51.331,93.497 66.269,74.773 66.269,51.735 Z M60.144,51.623 C60.144,73.353 48.252,90.778 33.72,90.778 C19.135,90.778 7.26,73.353 7.26,51.623 C7.26,30.211 19.135,12.444 33.72,12.444 C48.252,12.444 60.144,30.211 60.144,51.623 Z M53.976,63.173 C53.976,62.445 53.468,62.019 53.468,62.019 L32.404,40.876 L32.404,20.013 C21.549,20.435 13.5,32.531 13.043,40.266 C12.994,41.07 13.519,41.493 13.519,41.493 L34.614,62.753 L34.614,83.591 C45.546,83.163 53.766,70.903 53.976,63.173 Z M53.976,40.182 C53.598,32.437 45.429,20.427 34.614,20.013 L34.614,41.1190169 L53.057,41.1190169 C53.057,41.1190169 54.039,41.135 53.976,40.182 Z M13.051,63.502 C13.476,71.244 21.629,83.178 32.404,83.591 L32.404,62.489 L13.938,62.489 C13.938,62.489 12.956,62.421 13.051,63.502 L13.051,63.502 Z" id="Fill-1" fill="#003399"></path>
        <path d="M353.929,23.846 L353.929,29.936 L341.864,29.936 L341.864,69.923 C341.864,72.299 342.189,74.157 342.84,75.496 C343.49,76.838 345.119,77.584 347.724,77.737 C349.792,77.737 351.86,77.622 353.929,77.392 L353.929,83.482 C352.855,83.482 351.783,83.52 350.711,83.597 C349.638,83.673 348.566,83.712 347.494,83.712 C342.668,83.712 339.296,82.775 337.382,80.897 C335.466,79.021 334.547,75.554 334.624,70.498 L334.624,29.936 L324.283,29.936 L324.283,23.846 L334.624,23.846 L334.624,6.035 L341.864,6.035 L341.864,23.846 L353.929,23.846 Z M405.483,41.427 C404.602,38.899 403.358,36.658 401.749,34.704 C400.14,32.751 398.187,31.182 395.889,29.993 C393.591,28.807 390.985,28.212 388.075,28.212 C385.088,28.212 382.445,28.807 380.147,29.993 C377.848,31.182 375.895,32.751 374.286,34.704 C372.678,36.658 371.394,38.918 370.437,41.484 C369.478,44.051 368.846,46.675 368.541,49.355 L406.92,49.355 C406.843,46.597 406.363,43.954 405.483,41.427 Z M369.633,63.546 C370.36,66.343 371.529,68.852 373.137,71.073 C374.746,73.295 376.775,75.134 379.227,76.588 C381.678,78.044 384.628,78.771 388.075,78.771 C393.361,78.771 397.497,77.392 400.485,74.635 C403.473,71.877 405.541,68.2 406.69,63.604 L413.929,63.604 C412.396,70.345 409.581,75.554 405.483,79.231 C401.385,82.908 395.582,84.746 388.075,84.746 C383.402,84.746 379.36,83.922 375.952,82.276 C372.543,80.63 369.765,78.369 367.622,75.496 C365.476,72.624 363.887,69.291 362.853,65.5 C361.819,61.708 361.302,57.706 361.302,53.492 C361.302,49.585 361.819,45.755 362.853,42.001 C363.887,38.249 365.476,34.897 367.622,31.947 C369.765,28.999 372.543,26.623 375.952,24.823 C379.36,23.023 383.402,22.122 388.075,22.122 C392.824,22.122 396.883,23.081 400.255,24.995 C403.625,26.911 406.363,29.419 408.471,32.521 C410.577,35.624 412.091,39.186 413.01,43.208 C413.929,47.229 414.312,51.309 414.159,55.445 L368.541,55.445 C368.541,58.05 368.904,60.751 369.633,63.546 Z M418.775,23.846 L427.853,23.846 L444.744,46.368 L461.291,23.846 L470.368,23.846 L448.996,52.228 L472.092,83.138 L462.899,83.138 L444.284,58.203 L426.014,83.138 L417.051,83.138 L440.033,52.343 L418.775,23.846 Z M502.561,23.846 L502.561,29.936 L490.496,29.936 L490.496,69.923 C490.496,72.299 490.821,74.157 491.472,75.496 C492.122,76.838 493.751,77.584 496.356,77.737 C498.424,77.737 500.493,77.622 502.561,77.392 L502.561,83.482 C501.487,83.482 500.415,83.52 499.344,83.597 C498.27,83.673 497.198,83.712 496.126,83.712 C491.3,83.712 487.928,82.775 486.014,80.897 C484.099,79.021 483.179,75.554 483.257,70.498 L483.257,29.936 L472.915,29.936 L472.915,23.846 L483.257,23.846 L483.257,6.035 L490.496,6.035 L490.496,23.846 L502.561,23.846 Z M513.036,12.7 L520.276,12.7 L520.276,1.094 L513.036,1.094 L513.036,12.7 Z M513.036,83.138 L520.276,83.138 L520.276,23.846 L513.036,23.846 L513.036,83.138 Z" id="Fill-2" fill="#D4006B"></path>
    </g>
</svg>